<svg viewBox="-13.89 -11.86 138.86 118.6" xmlns="http://www.w3.org/2000/svg">
  <defs>
    <style>.cls-1 { fill: #ff7a59; fill-rule: evenodd; }</style>
  </defs>
  <path class="cls-1" d="M 28.37,76.73 C 21.74,74.22 17.02,67.81 17.02,60.3 c 0,-9.7 7.86,-17.55 17.55,-17.55 4.72,0 9,1.86 12.16,4.89 0.88,-4.09 2.48,-7.98 4.73,-11.52 0.9,-1.42 1.91,-2.79 3.02,-4.08 0,0 0.01,-0.02 0.02,-0.02 3.27,-3.82 7.32,-6.92 11.86,-9.07 0.87,-0.41 1.76,-0.79 2.65,-1.13 V 0 H 51.46 V 30.13 C 46.32,27.25 40.51,25.73 34.57,25.73 15.48,25.73 0,41.21 0,60.3 c 0,16.98 12.24,31.1 28.37,34.02 2.01,0.36 4.09,0.55 6.2,0.55 v 0 c 18.86,0 34.57,-15.2 34.57,-34.57 0,-5.08 0.86,-9.12 2.02,-11.12 2.15,-3.73 6.14,-6.03 10.44,-6.03 6.66,0 12.06,5.4 12.06,12.06 v 39.67 h 17.42 V 55.21 c 0,-16.28 -13.2,-29.48 -29.48,-29.48 -4.51,0 -8.78,1.01 -12.6,2.82 -3.78,1.79 -7.12,4.36 -9.8,7.5 -4.41,5.15 -7.08,11.85 -7.08,19.17 v 5.09 c 0,6.07 -3.08,11.43 -7.77,14.58 -2.44,1.71 -5.3,2.69 -8.26,2.91 -0.48,0.04 -0.96,0.06 -1.45,0.07 -2.16,0 -4.25,-0.36 -6.27,-1.13 v 0 z"/>
</svg>
